<mxfile host="app.diagrams.net" modified="2023-04-29T04:11:12.173Z" agent="Mozilla/5.0 (Windows NT 10.0; Win64; x64) AppleWebKit/537.36 (KHTML, like Gecko) Chrome/112.0.0.0 Safari/537.36" etag="LtLppZdPcTeCLLBuIB5z" version="21.2.3" type="device">
  <diagram name="Page-1" id="_23pkSSvgDVdn3Q9O285">
    <mxGraphModel dx="1434" dy="796" grid="1" gridSize="10" guides="1" tooltips="1" connect="1" arrows="1" fold="1" page="1" pageScale="1" pageWidth="850" pageHeight="1100" math="0" shadow="0">
      <root>
        <mxCell id="0" />
        <mxCell id="1" parent="0" />
        <mxCell id="Lt-gDSHxC4KpbyzdY3bR-11" style="edgeStyle=orthogonalEdgeStyle;rounded=0;orthogonalLoop=1;jettySize=auto;html=1;exitX=0.5;exitY=1;exitDx=0;exitDy=0;entryX=0.5;entryY=0;entryDx=0;entryDy=0;" edge="1" parent="1" source="Lt-gDSHxC4KpbyzdY3bR-1" target="Lt-gDSHxC4KpbyzdY3bR-2">
          <mxGeometry relative="1" as="geometry" />
        </mxCell>
        <mxCell id="Lt-gDSHxC4KpbyzdY3bR-1" value="Start Program" style="rounded=1;whiteSpace=wrap;html=1;" vertex="1" parent="1">
          <mxGeometry x="330" y="90" width="120" height="60" as="geometry" />
        </mxCell>
        <mxCell id="Lt-gDSHxC4KpbyzdY3bR-12" style="edgeStyle=orthogonalEdgeStyle;rounded=0;orthogonalLoop=1;jettySize=auto;html=1;exitX=0.5;exitY=1;exitDx=0;exitDy=0;entryX=0.5;entryY=0;entryDx=0;entryDy=0;" edge="1" parent="1" source="Lt-gDSHxC4KpbyzdY3bR-2" target="Lt-gDSHxC4KpbyzdY3bR-3">
          <mxGeometry relative="1" as="geometry" />
        </mxCell>
        <mxCell id="Lt-gDSHxC4KpbyzdY3bR-2" value="Read Excel File&amp;nbsp;" style="rounded=0;whiteSpace=wrap;html=1;" vertex="1" parent="1">
          <mxGeometry x="330" y="200" width="120" height="60" as="geometry" />
        </mxCell>
        <mxCell id="Lt-gDSHxC4KpbyzdY3bR-14" style="edgeStyle=orthogonalEdgeStyle;rounded=0;orthogonalLoop=1;jettySize=auto;html=1;exitX=0.5;exitY=1;exitDx=0;exitDy=0;entryX=0.5;entryY=0;entryDx=0;entryDy=0;" edge="1" parent="1" source="Lt-gDSHxC4KpbyzdY3bR-3" target="Lt-gDSHxC4KpbyzdY3bR-5">
          <mxGeometry relative="1" as="geometry" />
        </mxCell>
        <mxCell id="Lt-gDSHxC4KpbyzdY3bR-3" value="Loop through each article number and scrape images and video for each one" style="rounded=0;whiteSpace=wrap;html=1;" vertex="1" parent="1">
          <mxGeometry x="315" y="320" width="150" height="80" as="geometry" />
        </mxCell>
        <mxCell id="Lt-gDSHxC4KpbyzdY3bR-16" style="edgeStyle=orthogonalEdgeStyle;rounded=0;orthogonalLoop=1;jettySize=auto;html=1;exitX=0.5;exitY=1;exitDx=0;exitDy=0;entryX=0.5;entryY=0;entryDx=0;entryDy=0;" edge="1" parent="1" source="Lt-gDSHxC4KpbyzdY3bR-5" target="Lt-gDSHxC4KpbyzdY3bR-6">
          <mxGeometry relative="1" as="geometry" />
        </mxCell>
        <mxCell id="Lt-gDSHxC4KpbyzdY3bR-5" value="Create folder for article number" style="rounded=0;whiteSpace=wrap;html=1;" vertex="1" parent="1">
          <mxGeometry x="330" y="440" width="120" height="60" as="geometry" />
        </mxCell>
        <mxCell id="Lt-gDSHxC4KpbyzdY3bR-17" style="edgeStyle=orthogonalEdgeStyle;rounded=0;orthogonalLoop=1;jettySize=auto;html=1;exitX=0.5;exitY=1;exitDx=0;exitDy=0;entryX=0.5;entryY=0;entryDx=0;entryDy=0;" edge="1" parent="1" source="Lt-gDSHxC4KpbyzdY3bR-6" target="Lt-gDSHxC4KpbyzdY3bR-7">
          <mxGeometry relative="1" as="geometry" />
        </mxCell>
        <mxCell id="Lt-gDSHxC4KpbyzdY3bR-6" value="Send GET request to PDV page" style="rounded=0;whiteSpace=wrap;html=1;" vertex="1" parent="1">
          <mxGeometry x="330" y="550" width="120" height="60" as="geometry" />
        </mxCell>
        <mxCell id="Lt-gDSHxC4KpbyzdY3bR-18" style="edgeStyle=orthogonalEdgeStyle;rounded=0;orthogonalLoop=1;jettySize=auto;html=1;exitX=0.5;exitY=1;exitDx=0;exitDy=0;entryX=0.5;entryY=0;entryDx=0;entryDy=0;" edge="1" parent="1" source="Lt-gDSHxC4KpbyzdY3bR-7" target="Lt-gDSHxC4KpbyzdY3bR-8">
          <mxGeometry relative="1" as="geometry" />
        </mxCell>
        <mxCell id="Lt-gDSHxC4KpbyzdY3bR-7" value="Parse HTML with Beautiful Soup" style="rounded=0;whiteSpace=wrap;html=1;" vertex="1" parent="1">
          <mxGeometry x="330" y="650" width="120" height="60" as="geometry" />
        </mxCell>
        <mxCell id="Lt-gDSHxC4KpbyzdY3bR-19" style="edgeStyle=orthogonalEdgeStyle;rounded=0;orthogonalLoop=1;jettySize=auto;html=1;exitX=0.5;exitY=1;exitDx=0;exitDy=0;entryX=0.5;entryY=0;entryDx=0;entryDy=0;" edge="1" parent="1" source="Lt-gDSHxC4KpbyzdY3bR-8" target="Lt-gDSHxC4KpbyzdY3bR-9">
          <mxGeometry relative="1" as="geometry" />
        </mxCell>
        <mxCell id="Lt-gDSHxC4KpbyzdY3bR-8" value="Find all images URLs and download them&amp;nbsp;" style="rounded=0;whiteSpace=wrap;html=1;" vertex="1" parent="1">
          <mxGeometry x="330" y="760" width="120" height="60" as="geometry" />
        </mxCell>
        <mxCell id="Lt-gDSHxC4KpbyzdY3bR-20" style="edgeStyle=orthogonalEdgeStyle;rounded=0;orthogonalLoop=1;jettySize=auto;html=1;exitX=0.5;exitY=1;exitDx=0;exitDy=0;entryX=0.5;entryY=0;entryDx=0;entryDy=0;" edge="1" parent="1" source="Lt-gDSHxC4KpbyzdY3bR-9" target="Lt-gDSHxC4KpbyzdY3bR-10">
          <mxGeometry relative="1" as="geometry" />
        </mxCell>
        <mxCell id="Lt-gDSHxC4KpbyzdY3bR-9" value="Repeat for next article number in the list" style="rounded=0;whiteSpace=wrap;html=1;" vertex="1" parent="1">
          <mxGeometry x="330" y="860" width="120" height="60" as="geometry" />
        </mxCell>
        <mxCell id="Lt-gDSHxC4KpbyzdY3bR-10" value="End Program" style="rounded=1;whiteSpace=wrap;html=1;" vertex="1" parent="1">
          <mxGeometry x="330" y="970" width="120" height="60" as="geometry" />
        </mxCell>
      </root>
    </mxGraphModel>
  </diagram>
</mxfile>
